<?xml version="1.0" standalone="no"?>
<!DOCTYPE svg PUBLIC "-//W3C//DTD SVG 20010904//EN"
 "http://www.w3.org/TR/2001/REC-SVG-20010904/DTD/svg10.dtd">
<svg version="1.0" xmlns="http://www.w3.org/2000/svg"
 width="1508.000000pt" height="1508.000000pt" viewBox="0 0 1508.000000 1508.000000"
 preserveAspectRatio="xMidYMid meet">
<metadata>
Created by potrace 1.11, written by Peter Selinger 2001-2013
</metadata>
<g transform="translate(0.000000,1508.000000) scale(0.100000,-0.100000)"
fill="#000000" stroke="none">
<path d="M4770 14994 c-63 -47 -153 -118 -200 -157 -116 -97 -370 -351 -466
-467 -90 -108 -244 -322 -244 -339 0 -6 -4 -11 -8 -11 -5 0 -16 -15 -25 -32
-9 -18 -29 -53 -43 -78 -26 -44 -105 -199 -137 -270 -53 -118 -145 -391 -160
-475 -3 -16 -13 -67 -22 -111 -35 -180 -44 -295 -40 -539 2 -132 5 -249 8
-260 3 -11 8 -42 11 -70 4 -27 13 -82 21 -123 16 -85 25 -56 -95 -307 -60
-125 -109 -227 -224 -467 -29 -62 -79 -167 -111 -233 -31 -66 -79 -165 -105
-220 -26 -55 -78 -163 -115 -240 -37 -77 -87 -180 -110 -230 -24 -49 -73 -153
-110 -230 -124 -257 -148 -310 -147 -315 0 -3 3 -25 6 -50 4 -25 9 -56 12 -70
2 -14 7 -43 9 -64 3 -22 17 -109 31 -195 14 -86 27 -165 29 -177 2 -17 -34
-115 -136 -362 -5 -13 -9 -29 -9 -36 0 -6 -4 -16 -9 -21 -4 -6 -24 -50 -43
-100 -55 -141 -418 -1048 -428 -1070 -5 -11 -33 -78 -60 -150 -28 -71 -57
-143 -65 -160 -7 -16 -34 -84 -60 -150 -26 -66 -51 -129 -55 -140 -5 -11 -25
-60 -45 -110 -20 -49 -40 -99 -45 -110 -53 -116 -218 -551 -212 -560 6 -12
119 -139 186 -210 15 -16 53 -59 84 -94 31 -34 66 -73 77 -85 11 -12 56 -62
100 -110 44 -49 91 -101 105 -116 14 -15 81 -90 150 -166 69 -77 128 -140 132
-142 8 -4 39 -85 113 -302 127 -369 149 -429 165 -434 8 -2 77 -26 153 -53
l138 -49 74 -89 75 -89 -33 -15 c-98 -45 -182 -137 -247 -266 -54 -109 -102
-276 -103 -360 -1 -133 97 -375 230 -571 214 -315 622 -632 1038 -808 61 -26
118 -52 128 -57 28 -15 30 -7 13 57 -8 33 -17 70 -20 84 -20 87 -36 172 -43
220 -10 72 -10 398 0 475 5 33 10 74 12 90 28 244 219 803 310 909 14 16 25
32 25 36 0 17 262 274 335 327 125 93 284 181 304 169 8 -6 13 -30 28 -136 14
-105 8 -417 -11 -560 -2 -14 -7 -52 -11 -85 -4 -33 -9 -62 -10 -65 -2 -3 -6
-26 -10 -50 -15 -109 -100 -467 -125 -530 -6 -14 -12 -34 -14 -45 -7 -35 -97
-286 -143 -400 -109 -270 -275 -607 -380 -773 -18 -29 -33 -55 -33 -58 0 -3
-18 -32 -40 -65 -22 -33 -40 -62 -40 -64 0 -18 -353 -506 -435 -600 -350 -406
-522 -568 -892 -840 -79 -58 -435 -295 -514 -342 l-54 -32 2623 -1 2622 0 159
105 c87 58 162 105 167 105 4 0 15 6 23 14 9 8 46 30 84 50 61 33 68 35 74 19
21 -59 104 -152 163 -182 123 -64 241 -38 450 98 73 47 235 164 250 181 3 3
46 39 95 80 50 41 153 131 230 199 77 69 171 152 209 185 38 34 87 78 110 98
43 39 66 48 66 24 0 -35 75 -241 108 -295 66 -108 170 -163 272 -146 98 17
366 188 580 371 211 180 397 385 638 704 103 136 328 501 469 760 16 30 53 96
80 145 28 50 63 113 78 140 70 126 139 222 216 302 65 67 83 73 115 36 79 -91
163 -317 274 -738 33 -122 117 -380 125 -382 6 -1 19 6 30 16 46 40 308 321
356 381 208 259 333 592 376 1000 15 147 8 602 -12 755 -2 17 -6 57 -10 90 -9
98 -38 318 -50 385 -2 14 -7 46 -10 72 -4 42 -12 101 -29 218 -12 79 -26 200
-32 275 -3 44 -8 83 -11 88 -17 29 115 -39 259 -135 101 -67 360 -249 368
-259 3 -3 21 -17 41 -30 20 -13 81 -55 134 -94 54 -38 149 -105 211 -147 62
-42 162 -110 221 -151 59 -40 113 -76 119 -80 13 -7 15 38 19 397 1 120 -1
237 -5 260 -5 22 -11 61 -14 86 -36 280 -173 691 -392 1183 -139 312 -390 823
-632 1287 -38 75 -117 230 -175 345 -90 181 -124 253 -214 453 -15 33 -63 164
-63 171 0 2 26 0 58 -4 273 -33 625 -231 882 -496 210 -216 315 -378 463 -719
51 -117 57 -130 96 -215 l27 -60 115 155 c206 278 231 321 269 465 61 233 42
477 -62 830 -36 119 -100 285 -180 465 -35 77 -153 311 -202 399 -25 46 -46
85 -46 86 0 5 -127 220 -178 303 -29 46 -52 85 -52 87 0 2 -13 23 -29 47 -15
24 -80 122 -143 218 -117 177 -377 546 -476 675 l-54 70 43 5 c83 10 401 0
489 -15 14 -2 52 -7 85 -10 33 -3 74 -8 90 -10 66 -10 292 -45 320 -50 61 -12
331 -66 350 -71 11 -2 34 -7 50 -10 17 -2 46 -9 65 -14 19 -5 58 -12 85 -16
28 -3 54 -8 59 -11 4 -3 6 3 3 13 -3 11 -24 91 -47 179 -73 283 -107 361 -230
537 -65 94 -345 385 -445 464 -27 21 -52 41 -55 44 -12 13 -193 153 -283 219
-182 135 -462 322 -732 491 -82 51 -166 103 -185 116 -32 20 -374 227 -465
281 -140 83 -230 142 -227 149 2 10 82 33 172 50 14 2 34 6 45 9 115 24 471
25 591 1 12 -2 37 -7 55 -10 131 -22 269 -67 409 -134 52 -25 97 -46 100 -46
3 -1 95 -45 204 -99 110 -53 201 -96 203 -94 5 6 -269 553 -317 632 -181 297
-529 579 -1010 818 -102 51 -207 102 -235 113 -27 12 -77 33 -110 47 -184 77
-689 258 -760 271 -5 1 -32 9 -60 18 -124 39 -526 152 -810 227 -120 32 -186
50 -280 77 -27 8 -68 19 -90 25 -22 6 -49 15 -60 20 -11 4 -49 17 -85 28 -36
10 -87 29 -115 41 l-50 22 25 13 c21 12 -364 14 -2660 15 l-2686 0 -114 -86z"/>
<path d="M11900 15060 c47 -10 130 -27 185 -39 55 -12 134 -29 175 -37 41 -9
79 -18 84 -21 27 -17 -7 23 -57 66 l-58 51 -207 -1 -207 -1 85 -18z"/>
</g>
</svg>
