<?xml version="1.0" encoding="UTF-8" standalone="no"?>
<svg
   xmlns:dc="http://purl.org/dc/elements/1.1/"
   xmlns:cc="http://creativecommons.org/ns#"
   xmlns:rdf="http://www.w3.org/1999/02/22-rdf-syntax-ns#"
   xmlns:svg="http://www.w3.org/2000/svg"
   xmlns="http://www.w3.org/2000/svg"
   xmlns:sodipodi="http://sodipodi.sourceforge.net/DTD/sodipodi-0.dtd"
   xmlns:inkscape="http://www.inkscape.org/namespaces/inkscape"
   inkscape:version="1.0beta2 (2b71d25, 2019-12-03)"
   sodipodi:docname="lion.svg"
   viewBox="0 0 554.00001 554"
   height="554"
   width="554"
   xml:space="preserve"
   id="svg4788"
   version="1.1"><metadata
     id="metadata4794"><rdf:RDF><cc:Work
         rdf:about=""><dc:format>image/svg+xml</dc:format><dc:type
           rdf:resource="http://purl.org/dc/dcmitype/StillImage" /><dc:title></dc:title></cc:Work></rdf:RDF></metadata><defs
     id="defs4792"><clipPath
       id="clipPath4804"
       clipPathUnits="userSpaceOnUse"><path
         inkscape:connector-curvature="0"
         id="path4802"
         d="M 0,500 H 500 V 0 H 0 Z" /></clipPath></defs><sodipodi:namedview
     fit-margin-bottom="0"
     fit-margin-right="0"
     fit-margin-left="0"
     fit-margin-top="0"
     inkscape:document-rotation="0"
     inkscape:current-layer="g4796"
     inkscape:window-maximized="1"
     inkscape:window-y="23"
     inkscape:window-x="0"
     inkscape:cy="311.0581"
     inkscape:cx="285.88066"
     inkscape:zoom="1.1649069"
     showgrid="false"
     id="namedview4790"
     inkscape:window-height="1235"
     inkscape:window-width="2048"
     inkscape:pageshadow="2"
     inkscape:pageopacity="0"
     guidetolerance="10"
     gridtolerance="10"
     objecttolerance="10"
     borderopacity="1"
     bordercolor="#666666"
     pagecolor="#ffffff" /><g
     transform="matrix(1.3333333,0,0,-1.3333333,-60.16455,635.91685)"
     inkscape:label="lion-clip-art-2-publicdomainvectors.org"
     inkscape:groupmode="layer"
     id="g4796"><g
       transform="translate(-4.547586,9.0135961)"
       id="g4798"><g
         clip-path="url(#clipPath4804)"
         id="g4800"><path
           inkscape:connector-curvature="0"
           id="path4806"
           style="fill:#000000;fill-opacity:1;fill-rule:nonzero;stroke:none"
           d="m 418.538,278.498 c -5.157,5.197 -11.161,9.526 -18.068,12.54 -3.484,1.472 -7.145,2.685 -11.49,3.048 -2.201,0.121 -4.578,0.164 -7.548,-0.928 -0.305,-0.115 -0.624,-0.26 -0.944,-0.413 -0.222,0.33 -0.441,0.66 -0.691,1.013 -0.684,0.987 -1.439,2.079 -2.26,3.269 -0.871,1.158 -1.811,2.412 -2.817,3.75 -2.052,2.651 -4.494,5.557 -7.321,8.612 -2.88,2.99 -6.1,6.196 -9.859,9.212 -3.719,3.057 -7.884,6.051 -12.481,8.705 -4.582,2.682 -9.55,5.099 -14.764,7.157 -5.224,2.019 -10.674,3.688 -16.185,5.043 -5.512,1.372 -11.088,2.383 -16.577,3.168 -5.496,0.812 -10.909,1.365 -16.137,1.781 -5.235,0.443 -10.271,0.684 -15.049,0.902 -4.775,0.196 -9.273,0.311 -13.42,0.396 -6.341,0.116 -11.839,0.15 -16.237,0.164 0.842,0.908 1.794,1.854 2.893,2.812 2.169,1.904 4.896,3.846 8.206,5.629 3.306,1.78 7.188,3.413 11.562,4.728 4.378,1.294 9.214,2.327 14.368,2.984 10.307,1.337 21.788,1.326 33.279,0.317 11.504,-0.984 23.037,-2.922 33.762,-5.258 10.732,-2.336 20.666,-5.074 29.095,-7.715 6.511,-2.035 12.114,-4.007 16.543,-5.689 -0.177,-0.256 -0.35,-0.531 -0.509,-0.831 -0.608,-1.117 -0.948,-2.551 -0.918,-3.802 0.017,-1.262 0.31,-2.303 0.639,-3.13 0.338,-0.843 0.71,-1.454 1.082,-2.016 l 0.453,-0.635 0.318,-0.43 0.628,-0.844 2.45,-3.32 c 3.238,-4.425 6.382,-8.905 9.403,-13.451 6.012,-9.09 11.721,-18.413 16.132,-28.045 1.563,-3.424 2.951,-6.905 3.987,-10.34 -0.5,0.547 -1.004,1.09 -1.525,1.617 M 399.68,227.422 c 2.747,-5.846 5.341,-11.733 7.456,-17.634 0.402,-1.127 0.78,-2.252 1.139,-3.377 -1.765,1.24 -3.559,2.48 -5.434,3.693 -2.125,1.369 -4.31,2.715 -6.852,3.954 -1.283,0.613 -2.64,1.211 -4.34,1.691 -0.855,0.237 -1.798,0.449 -2.951,0.536 -1.148,0.075 -2.55,0.062 -4.208,-0.501 -1.648,-0.535 -3.394,-1.822 -4.36,-3.237 -1.006,-1.408 -1.439,-2.743 -1.697,-3.853 -0.031,-0.132 -0.038,-0.244 -0.064,-0.375 -1.348,3.575 -2.984,7.24 -4.841,11.002 -0.683,1.331 -1.46,2.637 -2.204,3.987 -0.772,1.329 -1.472,2.738 -2.364,4.035 -1.715,2.639 -3.412,5.399 -5.409,7.996 -3.798,5.362 -8.28,10.462 -12.988,15.502 -2.433,2.434 -4.834,4.964 -7.436,7.282 -1.289,1.171 -2.541,2.404 -3.876,3.532 l -3.996,3.408 c -5.401,4.46 -10.983,8.723 -16.712,12.572 -5.682,3.93 -11.502,7.45 -17.228,10.718 -2.883,1.593 -5.714,3.183 -8.559,4.599 -2.813,1.485 -5.633,2.805 -8.376,4.106 -2.746,1.292 -5.472,2.449 -8.103,3.589 -2.672,1.053 -5.213,2.165 -7.744,3.048 -1.259,0.46 -2.49,0.911 -3.694,1.353 -1.223,0.407 -2.417,0.803 -3.582,1.19 -1.649,0.567 -3.251,1.039 -4.817,1.492 1.792,0.021 3.653,0.009 5.633,-0.119 2.352,-0.086 4.803,-0.175 7.338,-0.268 2.534,-0.14 5.127,-0.504 7.817,-0.755 5.408,-0.388 10.978,-1.526 16.816,-2.512 1.473,-0.205 2.896,-0.631 4.358,-0.972 1.457,-0.359 2.928,-0.722 4.405,-1.084 1.481,-0.365 2.973,-0.729 4.472,-1.098 1.478,-0.434 2.941,-0.938 4.424,-1.407 1.485,-0.477 2.974,-0.958 4.468,-1.439 1.486,-0.505 3.027,-0.9 4.467,-1.54 2.935,-1.183 5.882,-2.371 8.829,-3.558 1.501,-0.547 2.888,-1.322 4.326,-2.003 1.43,-0.699 2.857,-1.399 4.283,-2.098 1.42,-0.711 2.874,-1.364 4.262,-2.123 1.368,-0.796 2.729,-1.593 4.089,-2.384 1.36,-0.795 2.717,-1.585 4.067,-2.372 l 2.025,-1.179 1.921,-1.307 c 2.558,-1.753 5.087,-3.485 7.572,-5.187 0.636,-0.411 1.235,-0.864 1.81,-1.344 0.584,-0.464 1.164,-0.929 1.744,-1.392 1.162,-0.926 2.312,-1.844 3.449,-2.752 1.14,-0.907 2.268,-1.808 3.383,-2.697 1.088,-0.92 2.09,-1.908 3.121,-2.841 2.047,-1.892 4.038,-3.73 5.963,-5.51 1.879,-1.831 3.55,-3.739 5.241,-5.501 0.368,-0.404 0.739,-0.796 1.107,-1.187 4.061,-7.933 8.117,-15.759 11.85,-23.679 m -17.502,-66.05 c -0.095,-2.167 -0.269,-4.313 -0.63,-6.375 -0.358,-2.057 -0.802,-4.081 -1.475,-5.972 -0.004,0.016 -0.009,0.027 -0.011,0.039 -0.847,2.175 -1.812,4.381 -3.195,6.649 -0.707,1.136 -1.523,2.294 -2.599,3.447 -1.092,1.145 -2.475,2.336 -4.416,3.194 -0.969,0.416 -2.054,0.723 -3.18,0.85 -1.127,0.117 -2.251,0.051 -3.291,-0.146 -2.061,-0.425 -3.68,-1.287 -4.985,-2.17 -1.267,-0.891 -2.305,-1.819 -3.215,-2.762 0.179,3.083 0.119,6.287 -0.256,9.558 -0.284,3.167 -0.936,6.357 -1.669,9.601 -0.814,3.222 -1.778,6.482 -2.974,9.715 -2.366,6.475 -5.474,12.895 -9.072,19.137 -3.618,6.231 -7.701,12.313 -12.138,18.115 -8.842,11.637 -18.926,22.268 -29.115,31.463 -10.184,9.215 -20.517,16.968 -30.019,22.946 -9.518,5.961 -18.281,10.088 -25.251,12.234 -0.855,0.283 -1.7,0.518 -2.514,0.724 -0.144,0.039 -0.278,0.073 -0.421,0.11 2.456,-0.248 5.343,-0.622 8.653,-1.234 1.917,-0.367 3.964,-0.733 6.119,-1.261 1.081,-0.251 2.19,-0.508 3.323,-0.77 1.132,-0.301 2.289,-0.608 3.47,-0.922 2.376,-0.586 4.814,-1.399 7.365,-2.138 2.524,-0.831 5.149,-1.665 7.815,-2.633 2.664,-0.977 5.413,-1.963 8.172,-3.112 2.788,-1.077 5.577,-2.325 8.43,-3.571 5.659,-2.575 11.464,-5.389 17.171,-8.603 5.751,-3.139 11.394,-6.681 16.899,-10.43 l 4.083,-2.878 c 1.367,-0.954 2.648,-2.006 3.977,-3.004 2.678,-1.973 5.152,-4.152 7.683,-6.249 4.89,-4.356 9.604,-8.81 13.665,-13.559 2.136,-2.298 3.973,-4.756 5.844,-7.123 0.971,-1.162 1.747,-2.429 2.601,-3.631 0.825,-1.217 1.688,-2.397 2.457,-3.609 2.997,-4.894 5.627,-9.688 7.525,-14.354 0.498,-1.219 1,-2.411 1.456,-3.586 0.102,-1.061 0.217,-2.109 0.343,-3.145 0.3,-2.458 0.649,-4.852 0.995,-7.221 0.691,-4.739 1.384,-9.36 1.848,-13.922 0.468,-4.557 0.714,-9.054 0.532,-13.402 m -36.471,-17.788 c -3.879,-7.385 -7.887,-14.431 -12.625,-20.912 -4.723,-6.455 -10.091,-12.365 -16.311,-16.905 -0.567,-0.418 -1.151,-0.815 -1.734,-1.206 -0.386,1.242 -0.781,2.575 -1.245,3.981 -0.396,1.129 -0.722,2.21 -1.566,3.8 -0.235,0.416 -0.495,0.87 -1.01,1.494 -0.14,0.162 -0.264,0.306 -0.466,0.503 l -0.29,0.27 -0.383,0.308 c -0.031,0.024 -0.072,0.049 -0.105,0.073 0.293,0.427 0.586,0.859 0.872,1.307 2.806,4.395 5.265,9.63 6.746,15.503 0.798,2.925 1.271,5.998 1.652,9.158 0.287,3.16 0.439,6.413 0.328,9.71 -0.215,6.588 -1.196,13.361 -2.856,20.045 -1.622,6.705 -3.885,13.328 -6.529,19.781 -5.329,12.899 -12.256,25.051 -19.667,35.826 -7.414,10.783 -15.334,20.196 -22.861,27.768 -6.464,6.491 -12.68,11.597 -18.039,15.158 3.586,-1.369 7.603,-3.133 11.919,-5.337 9.017,-4.612 19.308,-10.965 29.651,-18.787 10.354,-7.8 20.814,-17.035 30.146,-27.296 4.685,-5.117 9.044,-10.518 12.972,-16.083 3.908,-5.573 7.353,-11.336 10.098,-17.183 1.384,-2.919 2.544,-5.869 3.57,-8.796 0.942,-2.946 1.818,-5.864 2.335,-8.762 0.983,-4.781 1.217,-9.456 0.931,-13.832 -2.204,-3.239 -3.928,-6.557 -5.533,-9.586 m -41.582,-28.001 c -0.443,-0.206 -0.772,-0.418 -1.089,-0.648 l -0.157,-0.118 -0.629,-0.476 c -3.613,-2.731 -6.826,-5.706 -9.934,-8.57 -3.115,-2.885 -6.131,-5.744 -9.197,-8.394 -2.669,-2.321 -5.403,-4.453 -8.131,-6.101 -0.182,0.332 -0.384,0.696 -0.651,1.129 -0.403,0.636 -0.91,1.417 -1.858,2.27 -0.907,0.852 -2.512,1.68 -4.056,1.794 -1.539,0.135 -2.739,-0.206 -3.667,-0.549 -0.38,-0.166 -0.821,-0.357 -1.13,-0.525 2.776,3.293 5.435,7.099 7.73,11.433 2.544,4.798 4.707,10.179 6.209,15.947 1.501,5.765 2.489,11.885 2.837,18.127 0.391,6.247 0.232,12.61 -0.372,18.918 -1.176,12.635 -4.072,25.016 -7.676,36.307 -3.629,11.298 -7.985,21.524 -12.339,30.088 -4.38,8.572 -8.692,15.459 -12.609,20.349 -1.292,1.611 -2.54,2.995 -3.776,4.194 3.664,-2.28 7.954,-5.343 12.543,-9.167 7.366,-6.142 15.526,-14.156 23.377,-23.568 7.851,-9.4 15.418,-20.2 21.515,-31.774 3.031,-5.791 5.716,-11.765 7.794,-17.83 2.12,-6.052 3.599,-12.199 4.363,-18.225 0.385,-3.013 0.521,-5.992 0.533,-8.915 -0.083,-2.91 -0.246,-5.773 -0.728,-8.509 -0.85,-5.503 -2.66,-10.528 -4.898,-14.89 -0.324,-0.629 -0.68,-1.212 -1.025,-1.81 -1.063,0.105 -2.238,-0.115 -2.979,-0.487 m -51.074,-26.74 c -3.519,-2.456 -6.895,-4.97 -10.269,-7.266 -3.186,-2.183 -6.395,-4.168 -9.639,-5.653 -0.033,0.061 -0.066,0.11 -0.102,0.177 l -1.428,2.798 c -0.303,0.561 -0.651,1.17 -1.135,1.838 -0.488,0.657 -1.115,1.429 -2.196,2.142 -1.045,0.725 -2.679,1.181 -4.01,1.048 -0.642,-0.051 -1.274,-0.178 -1.758,-0.353 l -0.386,-0.133 -0.216,-0.084 -0.09,-0.04 -0.362,-0.157 c -0.975,-0.423 -1.904,-0.802 -2.959,-1.315 -2.09,-0.961 -3.963,-1.962 -5.889,-3.007 -3.812,-2.091 -7.43,-4.356 -11.005,-6.548 -3.573,-2.203 -7.093,-4.336 -10.664,-6.154 -0.892,-0.449 -1.787,-0.874 -2.686,-1.278 l -0.421,-0.181 c -0.063,0.44 -0.118,0.936 -0.167,1.45 -0.107,1.025 -0.171,2.122 -0.441,3.494 -0.164,0.7 -0.305,1.46 -0.928,2.552 1.226,0.575 2.789,1.319 4.628,2.28 2.445,1.223 5.37,2.806 8.674,4.726 1.649,0.961 3.403,1.995 5.204,3.164 1.833,1.125 3.689,2.414 5.643,3.745 7.716,5.432 16.372,12.529 24.115,21.773 3.874,4.607 7.507,9.727 10.7,15.271 3.217,5.534 5.871,11.54 7.997,17.753 2.067,6.229 3.576,12.686 4.397,19.139 0.866,6.453 1.071,12.897 0.795,19.108 -0.274,6.216 -1.071,12.201 -2.189,17.819 -0.16,0.784 -0.339,1.543 -0.51,2.312 1.272,-2.574 2.522,-5.233 3.728,-7.979 4.426,-10.122 8.304,-21.348 10.594,-32.896 1.16,-5.771 1.912,-11.617 2.146,-17.388 0.274,-5.775 -0.055,-11.466 -0.883,-16.902 -0.831,-5.437 -2.304,-10.585 -4.203,-15.282 -1.901,-4.699 -4.284,-8.92 -6.882,-12.557 -1.441,-2.04 -2.951,-3.871 -4.464,-5.552 -0.924,-0.618 -1.834,-1.242 -2.739,-1.864 M 232.168,75.475 c -0.038,-0.012 -0.178,-0.068 -0.132,-0.045 0.055,0.026 0.115,0.049 0.172,0.062 0.006,0 0.009,0 0.014,0.002 z m -7.154,0.342 -0.01,-0.013 c 0.006,0.007 -0.027,-0.004 -0.076,-0.018 l 0.024,0.012 0.092,0.035 c 0.057,0.022 -0.086,-0.035 -0.03,-0.016 m -38.535,-11.71 c -0.009,0 0.029,0.016 0.042,0.018 h 0.005 z m -1.914,9.824 c -0.863,0.52 -1.917,0.681 -2.666,0.624 -0.772,-0.055 -1.33,-0.239 -1.802,-0.42 l -0.525,-0.231 -0.356,-0.171 -1.427,-0.67 -2.853,-1.344 c -3.799,-1.779 -7.582,-3.47 -11.411,-5.156 -3.826,-1.645 -7.667,-3.266 -11.537,-4.714 -3.862,-1.44 -7.793,-2.786 -11.624,-3.587 -0.473,-0.1 -0.938,-0.184 -1.397,-0.248 0.049,0.095 0.085,0.183 0.137,0.281 0.452,0.857 0.97,1.738 1.502,2.635 0.533,0.904 1.082,1.809 1.633,2.823 0.275,0.527 0.549,1.018 0.83,1.811 0.07,0.217 0.142,0.43 0.2,0.793 0.012,0.362 0.211,0.855 -0.324,1.945 -0.009,0.017 -0.028,0.038 -0.036,0.052 1.133,0.47 2.573,1.077 4.27,1.841 1.144,0.498 2.406,1.063 3.764,1.714 1.362,0.636 2.838,1.324 4.391,2.117 3.134,1.526 6.591,3.406 10.335,5.527 7.443,4.316 15.906,9.865 24.256,16.858 8.37,6.951 16.6,15.355 23.721,24.762 7.125,9.397 13.1,19.799 17.347,30.255 4.276,10.447 6.871,20.897 7.786,30.295 0.804,8.427 0.367,15.965 -1.529,22.267 1.45,-3.312 2.822,-6.92 4.026,-10.799 1.464,-4.767 2.691,-9.919 3.484,-15.333 0.794,-5.409 1.191,-11.083 1.005,-16.846 -0.144,-5.769 -0.899,-11.617 -2.181,-17.381 -1.341,-5.744 -3.176,-11.42 -5.607,-16.772 -2.403,-5.368 -5.284,-10.454 -8.475,-15.142 -6.379,-9.406 -14.001,-17.097 -20.981,-23.145 -1.77,-1.486 -3.458,-2.933 -5.139,-4.214 -1.65,-1.326 -3.269,-2.513 -4.796,-3.625 -3.057,-2.218 -5.792,-4.074 -8.09,-5.531 -1.739,-1.142 -3.222,-2.042 -4.384,-2.742 -0.334,0.487 -0.82,1.037 -1.547,1.471 M 138.192,56.134 c 0,0.007 0.005,0.019 0.007,0.028 -0.002,-0.061 -0.016,-0.059 -0.007,-0.028 m -1.796,12.215 c -0.99,-0.372 -1.973,-0.732 -2.944,-1.055 -7.805,-2.699 -15.869,-4.871 -24.044,-6.027 -5.453,-0.78 -10.982,-1.061 -16.473,-0.729 1.15,0.288 2.275,0.647 3.415,0.963 1.259,0.414 2.521,0.817 3.766,1.261 2.487,0.903 4.947,1.866 7.361,2.929 2.417,1.052 4.805,2.172 7.152,3.362 2.356,1.176 4.676,2.416 6.961,3.716 2.293,1.284 4.549,2.634 6.779,4.023 2.234,1.379 4.431,2.821 6.608,4.287 1.249,0.846 2.485,1.709 3.714,2.582 0.582,0.317 1.206,0.659 1.908,1.052 3.543,1.988 8.537,4.982 14.219,9.112 5.675,4.118 12.039,9.373 18.267,15.689 6.229,6.306 12.351,13.636 17.696,21.588 5.371,7.932 9.974,16.455 13.491,24.914 3.507,8.467 5.943,16.849 7.064,24.573 0.466,3.228 0.684,6.345 0.651,9.334 1.18,-0.563 2.378,-1.223 3.595,-2 2.269,-1.45 4.307,-2.303 6.147,-2.661 0.05,-0.886 0.081,-1.794 0.096,-2.731 0.117,-7.633 -1.056,-16.909 -3.816,-26.573 -2.727,-9.681 -7.074,-19.734 -12.694,-29.152 -5.616,-9.424 -12.469,-18.211 -19.727,-25.736 -7.229,-7.562 -14.829,-13.86 -21.635,-18.882 -3.427,-2.478 -6.62,-4.708 -9.537,-6.547 -1.44,-0.951 -2.822,-1.792 -4.099,-2.57 -1.268,-0.79 -2.452,-1.488 -3.531,-2.105 -1.62,-0.957 -2.994,-1.723 -4.077,-2.319 -0.31,0.378 -0.763,0.705 -1.126,0.822 -0.47,0.177 -0.849,0.188 -1.083,0.183 -0.534,-0.019 -0.782,-0.106 -1.039,-0.176 z m 0.262,-10.528 c -0.078,0.002 -0.044,0.002 0.01,0 z m 27.82,88.319 c -5.705,7.748 -5.194,17.21 -4.8,20.454 0.632,5.23 2.474,9.779 4.811,12.27 3.302,-0.038 6.142,0.201 8.181,1.158 -3.32,-6.624 -8.761,-19.798 -8.192,-33.882 m -21.97,22.005 c 0.228,1.837 1.683,11.074 7.985,11.215 h 0.029 c -1.577,-2.384 -2.62,-5.595 -2.906,-9.234 -0.502,-6.38 1.303,-12.895 5.032,-18.904 -4.63,4.404 -8.785,10.066 -10.14,16.923 m -2.783,26.348 -1.898,5.483 47.264,12.644 0.406,-4.781 c -5.003,0.281 -11.507,-4.539 -18.335,-9.616 -4.397,-3.272 -9.869,-7.339 -12.037,-7.339 -5.124,0 -12.646,2.593 -15.4,3.609 m -5.645,15.944 1.366,5.462 49.197,2.007 0.231,-2.739 -47.871,-12.809 -2.719,7.855 z m 8.654,89.962 -2.186,13.744 22.981,48.079 0.712,0.111 c 11.977,1.91 32.02,5.105 46.811,-9.021 12.423,-11.862 18.916,-33.716 19.433,-65.174 -10.104,15.444 -27.238,17.551 -33.449,17.781 v 19.498 l -32.061,-13.62 c -2.516,-8.593 -22.841,-68.315 -22.841,-68.315 0,0 1.88,0.186 2.619,1.677 5.193,10.483 11.294,19.377 17.456,26.811 -0.261,-1.199 -0.433,-2.438 -0.451,-3.735 -0.012,-2.105 0.431,-4.293 1.379,-6.228 0.93,-1.949 2.319,-3.585 3.829,-4.934 0.763,-0.672 1.567,-1.265 2.385,-1.82 l 1.247,-0.774 1.177,-0.684 c 1.553,-0.904 3.102,-1.827 4.614,-2.761 3.026,-1.87 5.95,-3.792 8.636,-5.815 2.677,-2.025 5.142,-4.154 7.017,-6.503 1.876,-2.32 3.045,-5.026 2.587,-7.537 -0.427,-2.514 -2.089,-4.5 -3.639,-5.992 -1.592,-1.502 -3.181,-2.616 -4.513,-3.482 -0.804,-0.519 -1.502,-0.942 -2.106,-1.293 l -48.288,-1.973 4.793,19.175 -25.72,-6.006 z m 35.399,90.844 c -0.004,1.48 0.253,2.992 0.399,4.579 0.501,3.139 1.271,6.478 2.471,9.88 1.24,3.387 2.84,6.84 4.782,10.252 1.986,3.387 4.319,6.706 6.885,9.901 2.587,3.18 5.463,6.172 8.437,9.015 3.021,2.79 6.152,5.414 9.342,7.781 3.194,2.357 6.403,4.517 9.56,6.397 1.575,0.949 3.118,1.861 4.655,2.669 0.763,0.415 1.515,0.823 2.25,1.222 0.753,0.376 1.491,0.744 2.214,1.103 1.437,0.74 2.844,1.392 4.197,1.989 1.339,0.622 2.624,1.191 3.852,1.674 1.839,0.782 3.526,1.42 5.015,1.966 4.84,1.271 9.746,2.278 14.683,3.045 6.094,0.942 12.23,1.594 18.381,1.894 6.148,0.308 12.309,0.305 18.441,-0.018 6.136,-0.318 12.244,-0.983 18.28,-1.981 0.197,-0.033 0.395,-0.074 0.591,-0.108 -0.329,-0.004 -0.642,-0.011 -0.986,-0.017 -1.505,-0.077 -3.132,-0.158 -4.871,-0.247 -3.476,-0.217 -7.405,-0.533 -11.675,-1.076 -4.277,-0.502 -8.889,-1.252 -13.755,-2.182 -2.43,-0.476 -4.916,-1.039 -7.461,-1.609 -2.517,-0.662 -5.132,-1.23 -7.729,-2.021 -5.25,-1.417 -10.57,-3.269 -15.963,-5.258 -5.347,-2.099 -10.738,-4.418 -15.995,-7.098 -5.233,-2.72 -10.414,-5.635 -15.283,-8.965 -4.854,-3.342 -9.55,-6.86 -13.754,-10.77 -4.198,-3.904 -8.127,-7.939 -11.391,-12.257 -0.418,-0.531 -0.845,-1.048 -1.245,-1.583 -0.384,-0.55 -0.765,-1.095 -1.144,-1.636 -0.747,-1.092 -1.519,-2.145 -2.214,-3.23 -1.308,-2.229 -2.698,-4.319 -3.732,-6.522 -0.547,-1.087 -1.081,-2.151 -1.603,-3.191 -0.452,-1.082 -0.893,-2.139 -1.32,-3.17 -0.914,-2.045 -1.522,-4.096 -2.147,-6.011 -0.619,-1.736 -0.96,-3.437 -1.341,-5.014 -0.153,0.809 -0.323,1.644 -0.453,2.534 -0.068,0.607 -0.135,1.229 -0.207,1.865 -0.085,0.64 -0.148,1.296 -0.151,1.968 -0.025,0.677 -0.05,1.368 -0.077,2.071 -0.018,0.706 0.047,1.424 0.062,2.159 m 151.647,67.209 c 5.798,-1.808 11.442,-4.068 16.737,-6.901 1.65,-0.884 3.252,-1.846 4.823,-2.845 -2.264,0.335 -4.534,0.627 -6.825,0.82 -3.247,0.275 -6.52,0.411 -9.823,0.342 -3.302,-0.078 -6.629,-0.328 -10.024,-1.001 -1.7,-0.348 -3.414,-0.782 -5.205,-1.521 -0.895,-0.376 -1.816,-0.831 -2.781,-1.51 -0.928,-0.702 -2.086,-1.62 -2.795,-3.538 -0.338,-0.941 -0.411,-2.118 -0.181,-3.108 0.22,-1 0.65,-1.784 1.084,-2.399 0.899,-1.231 1.78,-1.897 2.689,-2.521 0.118,-0.087 0.443,-0.279 0.701,-0.427 0.293,-0.173 0.491,-0.268 0.71,-0.381 0.444,-0.233 0.848,-0.41 1.266,-0.599 0.171,-0.075 0.336,-0.14 0.504,-0.211 -1.908,0.113 -4.114,0.226 -6.611,0.29 -2.98,0.102 -6.346,0.12 -10.028,0.06 -3.68,-0.069 -7.678,-0.229 -11.906,-0.581 -4.233,-0.312 -8.689,-0.861 -13.299,-1.574 -4.614,-0.704 -9.35,-1.722 -14.148,-2.93 -4.801,-1.204 -9.611,-2.78 -14.377,-4.562 -4.774,-1.77 -9.416,-3.959 -13.917,-6.303 -4.504,-2.354 -8.738,-5.081 -12.766,-7.865 -3.933,-2.903 -7.704,-5.837 -10.983,-8.958 -3.352,-3.05 -6.291,-6.193 -8.907,-9.185 -0.376,-0.44 -0.732,-0.871 -1.096,-1.304 0.058,0.16 0.112,0.313 0.17,0.473 0.543,1.76 1.44,3.486 2.211,5.348 0.434,0.912 0.943,1.813 1.421,2.749 0.243,0.467 0.49,0.939 0.735,1.413 0.265,0.466 0.561,0.923 0.842,1.391 2.163,3.799 5.016,7.559 8.164,11.339 3.157,3.788 6.889,7.384 10.84,10.91 3.968,3.519 8.35,6.761 12.852,9.872 4.533,3.075 9.291,5.868 14.077,8.476 4.838,2.501 9.673,4.901 14.515,6.878 2.393,1.069 4.819,1.922 7.164,2.863 2.374,0.853 4.703,1.696 6.992,2.45 4.585,1.485 8.976,2.775 13.078,3.785 4.094,1.05 7.896,1.839 11.284,2.479 1.698,0.301 3.288,0.582 4.757,0.842 1.478,0.212 2.838,0.407 4.064,0.584 0.351,0.055 0.666,0.095 0.995,0.14 4.394,-0.877 8.739,-1.954 12.997,-3.28 m 2.032,-29.549 9.097,-2.701 c 6.036,-1.798 12.015,-3.646 17.889,-5.7 5.869,-2.059 11.654,-4.272 17.206,-6.843 5.543,-2.57 10.884,-5.49 15.59,-8.992 0.576,-0.433 1.141,-0.874 1.696,-1.324 -0.49,0.065 -0.982,0.134 -1.475,0.185 -5.877,0.601 -11.77,0.328 -17.633,-0.95 -1.469,-0.327 -2.939,-0.724 -4.428,-1.234 -1.492,-0.519 -2.983,-1.11 -4.615,-2.069 -0.82,-0.497 -1.68,-1.045 -2.698,-2.089 -0.497,-0.545 -1.089,-1.216 -1.601,-2.467 -0.126,-0.351 -0.233,-0.636 -0.317,-1.061 -0.042,-0.201 -0.074,-0.405 -0.1,-0.607 -0.003,0.053 -0.057,-1.121 -0.033,-0.634 v -0.03 l 0.005,-0.183 c 0.004,-0.146 0.034,-0.295 0.05,-0.442 -4.41,0.772 -10.163,1.777 -16.881,2.952 -7.928,1.321 -17.217,2.793 -27.302,3.825 -5.039,0.552 -10.284,0.929 -15.64,1.207 -5.358,0.245 -10.836,0.312 -16.347,0.161 -5.506,-0.23 -11.053,-0.542 -16.519,-1.331 -1.368,-0.153 -2.731,-0.367 -4.083,-0.608 -1.356,-0.236 -2.708,-0.446 -4.049,-0.703 -2.67,-0.603 -5.335,-1.09 -7.916,-1.851 -5.212,-1.304 -10.15,-3.18 -14.812,-5.096 -4.592,-2.103 -8.904,-4.323 -12.668,-6.812 -1.721,-1.138 -3.393,-2.216 -4.894,-3.398 1.712,2.626 3.641,5.399 5.908,8.163 2.363,3.035 5.179,5.961 8.175,8.951 3.095,2.876 6.406,5.791 10.057,8.433 3.649,2.635 7.493,5.205 11.571,7.43 4.066,2.24 8.261,4.337 12.544,6.103 4.28,1.769 8.585,3.38 12.852,4.685 4.261,1.313 8.444,2.464 12.467,3.36 4.017,0.934 7.863,1.656 11.432,2.248 3.571,0.581 6.866,1.047 9.8,1.374 2.93,0.353 5.5,0.585 7.616,0.759 0.461,0.039 0.892,0.074 1.31,0.107 2.965,-1.069 5.857,-1.944 8.746,-2.818 m 38.094,-38.715 c 0,-10e-4 -0.001,-0.003 -0.003,-0.005 -0.025,-0.017 -0.02,-0.012 0.002,0.005 z m 0,0.002 0.005,0.006 c -10e-4,-0.001 -0.003,-0.005 -0.004,-0.007 z M 195.678,235.501 c -0.443,1.528 -1.222,2.962 -2.144,4.312 -1.867,2.693 -4.298,5.084 -6.92,7.368 -2.629,2.28 -5.48,4.444 -8.426,6.555 -1.474,1.056 -2.969,2.093 -4.491,3.125 l -1.131,0.764 -1.032,0.733 c -0.659,0.511 -1.293,1.042 -1.866,1.614 -2.321,2.285 -3.537,5.149 -3.28,8.119 0.215,2.982 1.595,5.951 3.287,8.606 1.72,2.668 3.77,5.076 5.843,7.247 2.079,2.173 4.201,4.11 6.218,5.838 4.039,3.451 7.658,6.062 10.21,7.829 1.278,0.884 2.295,1.553 2.983,1.998 0.07,0.043 0.121,0.075 0.184,0.115 5.569,0.218 26.635,-0.149 35.164,-17.734 0.08,-0.167 0.152,-0.334 0.232,-0.502 -0.105,-11.064 -0.887,-23.22 -2.356,-36.457 -8.998,-11.659 -23.912,-17.029 -24.091,-17.093 l -0.827,-0.291 -13.663,-21.615 c -0.388,0.395 -0.815,0.755 -1.33,1.045 -0.031,0.019 -0.067,0.027 -0.097,0.045 L 187.33,221.8 c 1.252,0.723 2.67,1.622 4.149,2.836 1.694,1.437 3.645,3.378 4.374,6.296 0.35,1.438 0.276,3.049 -0.175,4.569 m -29.132,-43.525 c 0,0.94 3.593,3.857 6.632,4.432 0.203,0.038 0.4,0.067 0.597,0.082 -0.471,-0.943 -0.418,-11.682 -1.728,-11.682 l -5.276,6.878 z m -2.609,-49.112 c -0.76,0.439 -1.57,0.933 -2.428,1.48 -7.904,7.522 -12.083,16.725 -11.387,25.583 0.315,3.992 1.664,7.414 3.586,9.402 1.508,-0.049 3.068,-0.129 4.606,-0.213 1.053,-0.057 2.073,-0.11 3.074,-0.155 -2.084,-2.981 -3.624,-7.238 -4.207,-12.065 -1.132,-9.357 1.361,-17.924 6.756,-24.032 m 210.773,142.755 -0.013,-0.076 -0.057,-0.302 -0.047,-0.305 -0.056,-0.494 c -0.031,-0.331 -0.049,-0.665 -0.054,-0.995 l 0.021,-0.595 0.034,-0.589 0.061,-0.501 c 0.078,-0.697 0.199,-1.245 0.318,-1.815 0.245,-1.102 0.538,-2.041 0.837,-2.97 0.607,-1.821 1.272,-3.474 1.955,-5.091 0.972,-2.275 1.99,-4.447 3.022,-6.596 -0.5,0.572 -0.993,1.137 -1.501,1.719 -0.951,1.07 -1.876,2.198 -2.89,3.262 -1.044,1.039 -2.102,2.086 -3.169,3.147 -1.072,1.063 -2.156,2.136 -3.251,3.221 -0.547,0.543 -1.098,1.088 -1.652,1.636 -0.544,0.561 -1.114,1.096 -1.721,1.591 -2.39,2.049 -4.818,4.13 -7.277,6.237 l -1.863,1.581 -1.972,1.458 c -1.324,0.975 -2.651,1.956 -3.984,2.94 -1.339,0.986 -2.681,1.976 -4.03,2.969 -1.373,0.954 -2.817,1.806 -4.232,2.719 -1.424,0.899 -2.852,1.799 -4.283,2.702 -1.441,0.883 -2.837,1.862 -4.354,2.613 -2.992,1.601 -5.987,3.201 -8.968,4.795 -1.475,0.848 -3.053,1.448 -4.579,2.159 -1.542,0.688 -3.077,1.372 -4.608,2.055 -1.534,0.675 -3.053,1.384 -4.588,2.02 -1.563,0.57 -3.117,1.136 -4.662,1.699 -1.547,0.563 -3.085,1.123 -4.615,1.679 -1.535,0.54 -3.038,1.16 -4.589,1.556 -6.152,1.751 -12.102,3.624 -17.892,4.692 -2.884,0.591 -5.684,1.283 -8.418,1.736 -2.747,0.402 -5.401,0.79 -7.946,1.162 -1.507,0.259 -2.988,0.451 -4.452,0.618 2.415,0.248 4.912,0.492 7.497,0.722 4.582,0.386 9.42,0.785 14.398,1.009 4.983,0.251 10.123,0.392 15.315,0.305 5.198,-0.064 10.46,-0.324 15.663,-0.924 5.207,-0.58 10.372,-1.452 15.374,-2.67 4.99,-1.255 9.806,-2.866 14.344,-4.781 4.553,-1.889 8.78,-4.16 12.649,-6.578 3.906,-2.372 7.358,-5.018 10.507,-7.53 3.094,-2.579 5.834,-5.089 8.172,-7.414 1.157,-1.183 2.237,-2.288 3.236,-3.311 0.961,-1.063 1.842,-2.041 2.637,-2.923 0.262,-0.282 0.492,-0.545 0.729,-0.814 -0.978,-0.557 -1.966,-1.29 -2.84,-2.305 -0.677,-0.8 -1.265,-1.728 -1.66,-2.697 -0.109,-0.243 -0.186,-0.481 -0.268,-0.723 l -0.116,-0.366 -0.029,-0.09 c -0.057,-0.233 0.087,0.392 -0.133,-0.547 m 4.904,90.51 c 9.112,-5.651 18.116,-11.313 26.503,-17.553 4.174,-3.119 8.204,-6.385 11.735,-9.881 0.441,-0.439 0.875,-0.882 1.296,-1.327 -1.395,0.215 -2.794,0.415 -4.203,0.596 -2.872,0.364 -5.772,0.65 -8.737,0.803 -2.978,0.138 -5.98,0.186 -9.259,-0.165 -1.655,-0.197 -3.35,-0.441 -5.416,-1.17 -1.033,-0.394 -2.2,-0.864 -3.598,-2.019 -0.196,-0.165 -0.397,-0.356 -0.598,-0.56 -4.275,2.247 -9.759,4.961 -16.224,7.866 -8.141,3.667 -17.804,7.624 -28.409,11.303 -10.605,3.676 -22.153,7.085 -34.046,9.558 -11.879,2.49 -24.125,4.028 -35.948,3.929 -5.909,-0.043 -11.709,-0.545 -17.241,-1.48 -5.311,-0.917 -10.355,-2.31 -14.974,-4.068 1.367,0.961 2.797,1.914 4.299,2.872 3.595,2.053 7.481,4.195 11.819,5.909 2.119,0.957 4.401,1.682 6.668,2.531 1.152,0.386 2.329,0.729 3.505,1.1 1.175,0.378 2.366,0.733 3.584,1.033 4.818,1.37 9.881,2.336 14.979,3.236 5.115,0.825 10.297,1.452 15.44,1.901 5.146,0.413 10.243,0.727 15.198,0.841 9.909,0.303 19.227,0.074 27.221,-0.188 7.017,-0.286 13.008,-0.529 17.526,-0.715 0.069,-0.191 0.146,-0.387 0.209,-0.521 0.084,-0.177 0.175,-0.353 0.269,-0.522 l 0.237,-0.378 c 0.61,-0.888 1.009,-1.242 1.398,-1.633 0.381,-0.365 0.72,-0.656 1.05,-0.929 0.654,-0.536 1.263,-0.995 1.865,-1.429 2.39,-1.715 4.683,-3.169 6.987,-4.638 z m 47.489,-83.854 c -2.444,5.301 -5.187,10.353 -8.082,15.278 -2.901,4.921 -5.951,9.712 -9.141,14.391 -3.183,4.684 -6.478,9.274 -9.855,13.79 l -1.048,1.389 c 2.082,0.202 4.388,0.215 6.707,0.127 2.589,-0.104 5.229,-0.332 7.877,-0.64 5.299,-0.618 10.634,-1.546 15.942,-2.653 l 8.903,-1.861 -2.252,8.7 c -0.971,3.748 -2.75,6.595 -4.579,9.111 -1.857,2.507 -3.876,4.674 -5.948,6.7 -4.16,4.027 -8.555,7.491 -13.023,10.764 -8.943,6.512 -18.231,12.21 -27.45,17.796 l -6.875,4.15 c -1.477,0.906 -2.957,1.82 -4.37,2.732 0.819,0.268 1.661,0.516 2.529,0.725 4.627,1.099 9.61,1.43 14.431,1.01 4.833,-0.418 9.556,-1.628 13.814,-3.686 l 12.511,-6.049 -6.1,12.362 c -1.653,3.349 -3.825,6.314 -6.25,8.88 -2.422,2.58 -5.086,4.792 -7.836,6.779 -5.522,3.946 -11.407,6.991 -17.372,9.631 -11.946,5.259 -24.304,8.818 -36.553,12.145 l -9.146,2.464 c -3.02,0.827 -6.045,1.662 -8.862,2.616 -0.697,0.241 -1.383,0.489 -2.014,0.747 -0.304,0.129 -0.628,0.259 -0.887,0.39 l -0.341,0.167 c -0.086,0.048 -0.112,0.037 -0.318,0.175 -0.012,0.008 -0.024,0.015 -0.034,0.022 0.236,0.136 0.498,0.273 0.785,0.399 1.119,0.504 2.469,0.905 3.856,1.221 2.792,0.633 5.788,0.953 8.798,1.099 3.015,0.143 6.07,0.098 9.126,-0.081 6.114,-0.37 12.239,-1.256 18.289,-2.544 l 10.871,-2.311 -8.197,7.348 c -4.861,4.357 -10.346,7.864 -16.079,10.693 -5.742,2.83 -11.742,4.997 -17.837,6.678 -12.203,3.348 -24.772,4.826 -37.285,4.981 -6.259,0.078 -12.515,-0.169 -18.736,-0.732 -6.216,-0.569 -12.407,-1.436 -18.516,-2.69 -8.103,-1.664 -16.162,-3.758 -24.168,-5.843 -1.459,-0.381 -2.99,-0.807 -4.567,-1.318 -0.795,-0.245 -1.606,-0.496 -2.43,-0.751 -0.818,-0.286 -1.65,-0.575 -2.496,-0.87 -1.705,-0.57 -3.437,-1.244 -5.216,-1.955 -3.567,-1.404 -7.256,-3.093 -11.009,-5.018 -3.751,-1.934 -7.525,-4.165 -11.269,-6.639 -3.701,-2.531 -7.383,-5.286 -10.856,-8.364 -3.453,-3.095 -6.746,-6.443 -9.733,-10.041 -2.948,-3.63 -5.594,-7.488 -7.846,-11.481 -2.219,-4.017 -3.966,-8.183 -5.328,-12.288 -0.58,-2.083 -1.233,-4.103 -1.594,-6.132 -0.199,-1.011 -0.438,-2 -0.584,-2.986 -0.131,-0.992 -0.26,-1.967 -0.386,-2.919 -0.144,-0.955 -0.217,-1.897 -0.258,-2.82 -0.051,-0.926 -0.1,-1.831 -0.149,-2.711 -0.042,-1.765 0.033,-3.442 0.058,-5.027 0.103,-1.571 0.262,-3.039 0.389,-4.407 0.124,-1.358 0.431,-2.751 0.624,-3.936 0.112,-0.605 0.217,-1.176 0.317,-1.712 0.024,-0.135 0.051,-0.267 0.074,-0.397 0,0 0.021,-0.088 0.006,-0.091 l -24.8,-51.883 2.215,-13.917 -28.301,-70.595 20.617,-22.786 5.866,-16.948 1.067,-0.424 c 0.215,-0.089 2.813,-1.117 6.256,-2.156 l 3.685,-4.362 c -8.099,-2.982 -9.229,-14.88 -9.278,-15.454 l -0.029,-0.334 0.061,-0.332 c 3.814,-20.898 28.592,-31.595 29.645,-32.04 l 4.592,-1.943 -1.169,4.85 c -0.155,0.643 -0.292,1.282 -0.411,1.927 l 0.138,0.203 c -0.068,0.045 -0.125,0.091 -0.193,0.138 -2.549,14.407 3.292,29.22 6.828,36.491 4.068,5.325 9.708,10.989 16.613,13.646 0.087,-0.344 0.175,-0.69 0.256,-1.08 0.403,-2.086 0.646,-4.75 0.627,-7.788 -0.028,-6.09 -1.076,-13.612 -3.162,-21.53 -2.089,-7.93 -5.206,-16.285 -9.166,-24.294 -3.934,-8.032 -8.728,-15.7 -13.82,-22.492 -5.09,-6.803 -10.509,-12.693 -15.468,-17.441 -0.658,-0.631 -1.306,-1.237 -1.946,-1.827 -1.3,-1.036 -2.61,-2.061 -3.93,-3.071 -2.077,-1.576 -4.191,-3.102 -6.317,-4.611 -2.144,-1.483 -4.299,-2.949 -6.489,-4.362 -2.192,-1.406 -4.402,-2.785 -6.645,-4.105 -2.241,-1.326 -4.504,-2.616 -6.801,-3.835 -2.289,-1.234 -4.604,-2.418 -6.951,-3.536 -2.337,-1.132 -4.708,-2.193 -7.105,-3.183 -2.392,-1.003 -4.821,-1.904 -7.266,-2.741 -1.225,-0.412 -2.462,-0.781 -3.695,-1.165 -1.246,-0.319 -2.479,-0.708 -3.734,-0.974 -2.498,-0.616 -5.029,-1.015 -7.552,-1.296 l -7.702,-0.87 7.57,-1.716 c 8.381,-1.898 17.085,-2.159 25.603,-1.291 8.547,0.837 16.879,2.819 25.06,5.341 0.489,0.144 0.953,0.304 1.429,0.456 -0.555,-0.87 -1.119,-1.756 -1.666,-2.715 -0.282,-0.491 -0.561,-1.005 -0.826,-1.572 -0.263,-0.575 -0.532,-1.169 -0.725,-2.053 -0.079,-0.458 -0.192,-1.011 0.012,-1.913 0.097,-0.429 0.348,-0.999 0.762,-1.45 0.416,-0.475 0.923,-0.755 1.366,-0.924 0.203,-0.068 0.401,-0.135 0.624,-0.17 l 0.332,-0.047 0.2,-0.017 0.098,-0.005 0.234,-0.009 0.215,-0.002 0.886,0.014 c 1.206,0.048 2.371,0.185 3.483,0.378 4.44,0.779 8.534,2.057 12.602,3.415 4.059,1.366 8.027,2.888 11.987,4.437 3.928,1.577 7.864,3.236 11.734,4.92 l 2.891,1.272 0.143,0.059 c 0.04,-0.473 0.072,-0.992 0.112,-1.523 0.089,-1.092 0.144,-2.247 0.508,-3.734 0.21,-0.746 0.449,-1.621 1.257,-2.694 0.403,-0.527 1.005,-1.095 1.767,-1.477 0.756,-0.39 1.591,-0.558 2.281,-0.57 0.715,-0.012 1.226,0.078 1.789,0.222 l 0.42,0.122 0.187,0.064 0.294,0.109 0.195,0.075 1.57,0.624 c 1.032,0.43 2.051,0.882 3.049,1.354 3.982,1.895 7.718,4.041 11.367,6.155 3.65,2.113 7.23,4.219 10.851,6.081 1.791,0.919 3.661,1.847 5.416,2.596 0.69,0.32 1.502,0.639 2.304,0.963 0.067,-0.123 0.134,-0.244 0.207,-0.386 0.381,-0.762 0.793,-1.732 1.364,-2.859 0.297,-0.573 0.635,-1.186 1.115,-1.866 0.477,-0.669 1.134,-1.469 2.212,-2.188 1.054,-0.738 2.68,-1.207 4.026,-1.103 0.33,0.004 0.718,0.065 1.097,0.142 l 0.56,0.135 0.245,0.073 0.187,0.062 0.094,0.029 0.356,0.13 0.401,0.173 c 4.326,1.783 8.135,4.113 11.758,6.48 3.627,2.376 7.051,4.827 10.477,7.119 1.709,1.134 3.414,2.254 5.127,3.264 0.869,0.538 1.676,0.967 2.498,1.437 0.316,0.177 0.687,0.363 1.05,0.549 0.048,-0.091 0.088,-0.166 0.14,-0.268 0.266,-0.499 0.576,-1.098 1.076,-1.834 0.505,-0.714 1.221,-1.654 2.562,-2.477 0.665,-0.405 1.471,-0.711 2.294,-0.875 0.394,-0.058 0.806,-0.102 1.195,-0.113 0.363,0.002 0.73,0.024 1.087,0.064 0.622,0.096 1.242,0.241 1.872,0.487 0.792,0.317 0.397,0.156 1.159,0.512 4.316,2.272 7.858,5.024 11.214,7.813 3.355,2.792 6.501,5.666 9.612,8.441 1.869,1.658 3.706,3.274 5.553,4.805 0.353,-1.236 0.723,-2.544 1.175,-3.942 0.187,-0.567 0.392,-1.156 0.651,-1.801 0.272,-0.655 0.547,-1.33 1.15,-2.291 0.345,-0.49 0.682,-1.056 1.673,-1.867 0.498,-0.391 1.247,-0.868 2.298,-1.142 0.566,-0.138 1.141,-0.206 1.75,-0.175 0.463,-0.018 1.564,0.241 2.019,0.461 l 0.09,0.037 c -0.057,-0.031 0.822,0.398 0.496,0.241 l 0.189,0.107 0.377,0.208 0.759,0.417 c 2.021,1.113 3.949,2.371 5.805,3.7 7.453,5.327 13.578,11.997 18.857,19.039 5.278,7.053 9.683,14.645 13.709,22.106 2.026,3.751 3.872,7.15 6.076,9.987 1.065,1.379 2.251,2.608 3.148,3.193 0.237,0.162 0.43,0.257 0.563,0.31 l 0.059,-0.042 c 0.112,-0.086 0.27,-0.242 0.443,-0.418 0.354,-0.39 0.768,-0.956 1.164,-1.608 0.797,-1.334 1.538,-2.994 2.193,-4.746 0.656,-1.763 1.238,-3.627 1.782,-5.554 l 0.802,-2.951 c 0.276,-1.025 0.515,-1.998 0.902,-3.271 l 2.886,-9.539 6.901,7.229 c 1.947,2.038 3.696,4.281 5.181,6.677 1.463,2.414 2.636,4.963 3.573,7.557 0.947,2.596 1.565,5.242 2.049,7.873 0.484,2.63 0.725,5.251 0.866,7.836 0.265,5.187 -0.033,10.24 -0.514,15.166 -0.484,4.93 -1.19,9.745 -1.86,14.446 -0.334,2.351 -0.663,4.677 -0.933,6.953 -0.131,1.136 -0.263,2.269 -0.355,3.377 -0.081,0.916 -0.137,1.609 -0.18,2.444 0.104,-0.051 0.209,-0.099 0.316,-0.15 1.746,-0.856 3.636,-2.004 5.511,-3.227 1.883,-1.229 3.778,-2.553 5.687,-3.911 3.822,-2.719 7.65,-5.582 11.762,-8.383 l 9.388,-6.395 0.239,11.355 c 0.085,4.155 -0.574,7.822 -1.377,11.347 -0.824,3.517 -1.876,6.853 -3.025,10.11 -2.305,6.511 -5.018,12.695 -7.843,18.778 -2.835,6.073 -5.813,12.023 -8.811,17.919 -3.005,5.886 -6.073,11.713 -8.952,17.511 -1.433,2.897 -2.834,5.793 -4.051,8.629 -0.608,1.411 -1.171,2.819 -1.612,4.12 -0.092,0.287 -0.181,0.57 -0.262,0.846 0.246,0.002 0.509,-0.005 0.779,-0.029 2.231,-0.16 4.943,-0.947 7.504,-2.047 5.186,-2.229 10.095,-5.695 14.207,-9.834 4.126,-4.15 7.483,-9.035 9.841,-14.362 l 4.279,-9.665 6.256,8.502 c 1.259,1.711 2.171,3.622 2.755,5.507 0.589,1.889 0.874,3.752 0.99,5.534 0.221,3.578 -0.224,6.84 -0.86,9.932 -1.337,6.155 -3.526,11.681 -5.952,16.988" /></g></g></g></svg>
